<?xml version="1.0" encoding="iso-8859-1"?>
<!-- Generator: Adobe Illustrator 19.0.0, SVG Export Plug-In . SVG Version: 6.00 Build 0)  -->
<svg version="1.1" id="Layer_1" xmlns="http://www.w3.org/2000/svg" xmlns:xlink="http://www.w3.org/1999/xlink" x="0px" y="0px"
	 viewBox="0 0 343.066 343.066" style="enable-background:new 0 0 343.066 343.066;" xml:space="preserve">
<g id="XMLID_1483_">
	<path id="XMLID_1484_" style="fill:#FFE98F;" d="M283.974,155.095c32.636,0,59.092,26.456,59.092,59.092
		c0,22.738-12.688,42.465-31.516,52.346h-54.99c-18.828-9.881-31.679-29.607-31.679-52.346
		C224.882,181.551,251.337,155.095,283.974,155.095z"/>
	<circle id="XMLID_1485_" style="fill:#FF5023;" cx="266.533" cy="161.533" r="55"/>
	<path id="XMLID_1486_" style="fill:#FFDA44;" d="M59.092,155.095C26.456,155.095,0,181.551,0,214.187
		c0,22.738,12.688,42.465,31.516,52.346h54.989c18.828-9.881,31.679-29.607,31.679-52.346
		C118.184,181.551,91.728,155.095,59.092,155.095z"/>
	<circle id="XMLID_1487_" style="fill:#BD3C1A;" cx="76.533" cy="161.533" r="55"/>
	<circle id="XMLID_1488_" style="fill:#64C37D;" cx="131.533" cy="136.533" r="60"/>
	<circle id="XMLID_1489_" style="fill:#91DC5A;" cx="211.533" cy="136.533" r="60"/>
	<g id="XMLID_1490_">
		<path id="XMLID_1491_" style="fill:#FFAD41;" d="M311.533,266.533v-54.02c0-58.531-47.448-105.979-105.98-105.979h-68.041
			c-58.531,0-105.979,47.448-105.979,105.979v54.02H311.533z"/>
	</g>
	<g id="XMLID_1492_">
		<path id="XMLID_1493_" style="fill:#FF9811;" d="M171.533,106.533h-34.021c-58.531,0-105.979,47.448-105.979,105.979v54.02h140
			L171.533,106.533L171.533,106.533z"/>
	</g>
	<g id="XMLID_1494_">
		<circle id="XMLID_1495_" style="fill:#804C09;" cx="81.533" cy="206.533" r="10"/>
		<circle id="XMLID_1496_" style="fill:#804C09;" cx="131.533" cy="176.533" r="10"/>
		<circle id="XMLID_1497_" style="fill:#BD720D;" cx="261.533" cy="206.533" r="10"/>
		<circle id="XMLID_1498_" style="fill:#BD720D;" cx="211.533" cy="176.533" r="10"/>
		<circle id="XMLID_1499_" style="fill:#BD720D;" cx="171.533" cy="206.533" r="10"/>
		<path id="XMLID_1500_" style="fill:#804C09;" d="M171.533,196.533c-5.523,0-10,4.477-10,10c0,5.523,4.477,10,10,10"/>
	</g>
</g>
<g>
</g>
<g>
</g>
<g>
</g>
<g>
</g>
<g>
</g>
<g>
</g>
<g>
</g>
<g>
</g>
<g>
</g>
<g>
</g>
<g>
</g>
<g>
</g>
<g>
</g>
<g>
</g>
<g>
</g>
</svg>
